<?xml version="1.0" encoding="UTF-8" standalone="no"?>
<!DOCTYPE svg PUBLIC "-//W3C//DTD SVG 1.1//EN" "http://www.w3.org/Graphics/SVG/1.1/DTD/svg11.dtd">
<svg width="100%" height="100%" viewBox="0 0 877 174" version="1.1" xmlns="http://www.w3.org/2000/svg" xmlns:xlink="http://www.w3.org/1999/xlink" xml:space="preserve" xmlns:serif="http://www.serif.com/" style="fill-rule:evenodd;clip-rule:evenodd;stroke-linejoin:round;stroke-miterlimit:2;">
    <g transform="matrix(1,0,0,1,1550.1,-477.91)">
        <path d="M-1410.13,641.951C-1387.85,603.746 -1367.11,607.082 -1345.16,615.051C-1323.22,623.02 -1300.08,635.622 -1273,615.951C-1320.13,699.904 -1360.1,603.235 -1410.13,641.951ZM-1395.13,575.923C-1372.85,537.718 -1352.11,541.053 -1330.16,549.022C-1308.22,556.991 -1285.08,569.594 -1258,549.923C-1305.13,633.876 -1345.1,537.207 -1395.13,575.923ZM-1380.13,509.895C-1357.85,471.689 -1337.11,475.025 -1315.16,482.994C-1293.22,490.963 -1270.08,503.566 -1243,483.895C-1290.13,567.847 -1330.1,471.179 -1380.13,509.895Z" style="fill:rgb(38,161,158);"/>
        <path d="M-1550.1,529.938C-1550.1,522.759 -1548.73,516.024 -1545.99,509.732C-1543.25,503.44 -1539.52,497.935 -1534.8,493.216C-1530.08,488.497 -1524.57,484.766 -1518.28,482.024C-1511.99,479.281 -1505.25,477.91 -1498.07,477.91L-1418.46,477.91L-1418.46,512.636L-1498.07,512.636C-1500.49,512.636 -1502.75,513.08 -1504.85,513.967C-1506.95,514.854 -1508.78,516.084 -1510.36,517.657C-1511.93,519.23 -1513.16,521.065 -1514.05,523.163C-1514.93,525.26 -1515.38,527.518 -1515.38,529.938C-1515.38,532.358 -1514.93,534.637 -1514.05,536.775C-1513.16,538.912 -1511.93,540.768 -1510.36,542.34C-1508.78,543.913 -1506.95,545.144 -1504.85,546.031C-1502.75,546.918 -1500.49,547.362 -1498.07,547.362L-1463.35,547.362C-1456.17,547.362 -1449.41,548.713 -1443.08,551.415C-1436.75,554.117 -1431.22,557.828 -1426.5,562.547C-1421.79,567.266 -1418.08,572.791 -1415.37,579.123C-1412.67,585.455 -1411.32,592.211 -1411.32,599.39C-1411.32,606.569 -1412.67,613.305 -1415.37,619.597C-1418.08,625.888 -1421.79,631.394 -1426.5,636.113C-1431.22,640.831 -1436.75,644.562 -1443.08,647.305C-1449.41,650.047 -1456.17,651.419 -1463.35,651.419L-1540.42,651.419L-1540.42,616.693L-1463.35,616.693C-1460.93,616.693 -1458.67,616.249 -1456.57,615.362C-1454.48,614.474 -1452.64,613.244 -1451.07,611.671C-1449.49,610.098 -1448.26,608.263 -1447.38,606.166C-1446.49,604.069 -1446.05,601.81 -1446.05,599.39C-1446.05,596.97 -1446.49,594.712 -1447.38,592.614C-1448.26,590.517 -1449.49,588.682 -1451.07,587.109C-1452.64,585.536 -1454.48,584.306 -1456.57,583.419C-1458.67,582.531 -1460.93,582.088 -1463.35,582.088L-1498.07,582.088C-1505.25,582.088 -1511.99,580.716 -1518.28,577.974C-1524.57,575.231 -1530.08,571.501 -1534.8,566.782C-1539.52,562.063 -1543.25,556.537 -1545.99,550.205C-1548.73,543.873 -1550.1,537.117 -1550.1,529.938ZM-1111.86,651.419L-1146.58,651.419L-1146.58,616.693L-1216.03,616.693L-1216.03,651.419L-1250.64,651.419L-1250.64,547.362C-1250.64,537.763 -1248.82,528.749 -1245.19,520.319C-1241.56,511.89 -1236.62,504.529 -1230.37,498.237C-1224.12,491.946 -1216.78,486.985 -1208.35,483.355C-1199.92,479.725 -1190.91,477.91 -1181.31,477.91C-1171.71,477.91 -1162.69,479.725 -1154.27,483.355C-1145.84,486.985 -1138.48,491.946 -1132.18,498.237C-1125.89,504.529 -1120.93,511.89 -1117.3,520.319C-1113.67,528.749 -1111.86,537.763 -1111.86,547.362L-1111.86,651.419ZM-1103.09,529.938C-1103.09,522.759 -1101.71,516.024 -1098.97,509.732C-1096.23,503.44 -1092.5,497.935 -1087.78,493.216C-1083.06,488.497 -1077.56,484.766 -1071.26,482.024C-1064.97,479.281 -1058.24,477.91 -1051.06,477.91L-971.442,477.91L-971.442,512.636L-1051.06,512.636C-1053.48,512.636 -1055.74,513.08 -1057.83,513.967C-1059.93,514.854 -1061.77,516.084 -1063.34,517.657C-1064.91,519.23 -1066.14,521.065 -1067.03,523.163C-1067.92,525.26 -1068.36,527.518 -1068.36,529.938C-1068.36,532.358 -1067.92,534.637 -1067.03,536.775C-1066.14,538.912 -1064.91,540.768 -1063.34,542.34C-1061.77,543.913 -1059.93,545.144 -1057.83,546.031C-1055.74,546.918 -1053.48,547.362 -1051.06,547.362L-1016.33,547.362C-1009.15,547.362 -1002.4,548.713 -996.065,551.415C-989.733,554.117 -984.207,557.828 -979.489,562.547C-974.77,567.266 -971.059,572.791 -968.357,579.123C-965.655,585.455 -964.303,592.211 -964.303,599.39C-964.303,606.569 -965.655,613.305 -968.357,619.597C-971.059,625.888 -974.77,631.394 -979.489,636.113C-984.207,640.831 -989.733,644.562 -996.065,647.305C-1002.4,650.047 -1009.15,651.419 -1016.33,651.419L-1093.41,651.419L-1093.41,616.693L-1016.33,616.693C-1013.91,616.693 -1011.65,616.249 -1009.56,615.362C-1007.46,614.474 -1005.62,613.244 -1004.05,611.671C-1002.48,610.098 -1001.25,608.263 -1000.36,606.166C-999.473,604.069 -999.029,601.81 -999.029,599.39C-999.029,596.97 -999.473,594.712 -1000.36,592.614C-1001.25,590.517 -1002.48,588.682 -1004.05,587.109C-1005.62,585.536 -1007.46,584.306 -1009.56,583.419C-1011.65,582.531 -1013.91,582.088 -1016.33,582.088L-1051.06,582.088C-1058.24,582.088 -1064.97,580.716 -1071.26,577.974C-1077.56,575.231 -1083.06,571.501 -1087.78,566.782C-1092.5,562.063 -1096.23,556.537 -1098.97,550.205C-1101.71,543.873 -1103.09,537.117 -1103.09,529.938ZM-918.025,651.419L-952.751,651.419L-952.751,477.91L-918.025,477.91L-918.025,564.664L-853.413,477.91L-813.968,477.91L-868.78,551.113L-813.968,651.419L-853.413,651.419L-891.527,581.241L-918.025,616.693L-918.025,651.419ZM-726.028,651.419L-760.633,651.419L-760.633,597.091C-768.296,595.155 -775.334,592.05 -781.747,587.775C-788.16,583.499 -793.665,578.397 -798.263,572.469C-802.861,566.54 -806.43,559.966 -808.971,552.746C-811.512,545.527 -812.783,537.924 -812.783,529.938L-812.783,477.91L-778.057,477.91L-778.057,529.938C-778.057,534.698 -777.149,539.195 -775.334,543.429C-773.519,547.664 -771.039,551.355 -767.893,554.501C-764.747,557.647 -761.057,560.127 -756.822,561.942C-752.587,563.757 -748.09,564.664 -743.331,564.664C-738.572,564.664 -734.075,563.757 -729.84,561.942C-725.605,560.127 -721.915,557.647 -718.769,554.501C-715.623,551.355 -713.142,547.664 -711.327,543.429C-709.512,539.195 -708.605,534.698 -708.605,529.938L-708.605,477.91L-674,477.91L-674,529.938C-674,537.924 -675.27,545.527 -677.811,552.746C-680.352,559.966 -683.922,566.54 -688.52,572.469C-693.117,578.397 -698.603,583.499 -704.975,587.775C-711.348,592.05 -718.365,595.155 -726.028,597.091L-726.028,651.419ZM-1146.58,582.088L-1146.58,547.362C-1146.58,542.603 -1147.49,538.106 -1149.3,533.871C-1151.12,529.636 -1153.6,525.945 -1156.75,522.8C-1159.89,519.654 -1163.58,517.173 -1167.82,515.358C-1172.05,513.543 -1176.55,512.636 -1181.31,512.636C-1186.07,512.636 -1190.56,513.543 -1194.8,515.358C-1199.03,517.173 -1202.72,519.654 -1205.87,522.8C-1209.02,525.945 -1211.5,529.636 -1213.31,533.871C-1215.13,538.106 -1216.03,542.603 -1216.03,547.362L-1216.03,582.088L-1146.58,582.088Z" style="fill:rgb(9,116,170);fill-rule:nonzero;"/>
    </g>
</svg>
